# xmcd
#
# Track frame offsets: 
#        150
#        13767
#        30820
#        46297
#        71106
#        103088
#        120457
#        132674
#        150055
#        166902
#
# Disc length: 2399 seconds
#
# Revision: 0
# Processed by: cddbd v1.5.2PL0 Copyright (c) Steve Scherf et al.
# Submitted via: ExactAudioCopy v0.99pb5
#
DISCID=75095d0a
DTITLE=Blue Plate Special - No Place To Fade
DYEAR=1998
DGENRE=Blues
TTITLE0=Stand
TTITLE1=Fire Alarm
TTITLE2=Millionaire
TTITLE3=Homework
TTITLE4=No Place To Fade
TTITLE5=Your Heart Ain't In It
TTITLE6=Somebody Play The Blues For Me
TTITLE7=Dippin' In
TTITLE8=World Of Trouble
TTITLE9=One More Thing
EXTD=
EXTT0=
EXTT1=
EXTT2=
EXTT3=
EXTT4=
EXTT5=
EXTT6=
EXTT7=
EXTT8=
EXTT9=
PLAYORDER=
